<svg xmlns="http://www.w3.org/2000/svg" width="27.532" height="27.532" viewBox="0 0 27.532 27.532">
  <path id="phone-icon" d="M3,6.546A21.986,21.986,0,0,0,24.986,28.532q.822,0,1.629-.059a2.773,2.773,0,0,0,1.207-.23,1.5,1.5,0,0,0,.57-.613,3.1,3.1,0,0,0,.141-1.313v-4a3.231,3.231,0,0,0-.094-1.1,1.417,1.417,0,0,0-.394-.562,3.234,3.234,0,0,0-1.006-.466L22.49,18.533a3.348,3.348,0,0,0-1.236-.322,1.419,1.419,0,0,0-.728.258,3.343,3.343,0,0,0-.757,1.029L18.6,21.44a17.164,17.164,0,0,1-8.511-8.511l1.941-1.165a3.344,3.344,0,0,0,1.029-.757,1.419,1.419,0,0,0,.258-.728A3.347,3.347,0,0,0,13,9.043L11.345,4.494a3.234,3.234,0,0,0-.466-1.006,1.419,1.419,0,0,0-.562-.394A3.234,3.234,0,0,0,9.212,3h-4A3.1,3.1,0,0,0,3.9,3.141a1.5,1.5,0,0,0-.613.57,2.771,2.771,0,0,0-.23,1.207Q3,5.724,3,6.546Z" transform="translate(-2 -2)" fill="none" stroke="#e9ba20" stroke-linecap="round" stroke-linejoin="round" stroke-width="2"/>
</svg>
