<?xml version="1.0" encoding="UTF-8"?>
<svg id="Layer_2" xmlns="http://www.w3.org/2000/svg" viewBox="0 0 59.65 89.48">
  <g id="Layer_1-2" data-name="Layer_1">
    <g id="logo_icon">
      <path id="Path_103" d="M13.03,57.33s-2.84-2.07-2.05-2.86,2.74,1.43,2.74,1.43c0,0,7.04-2.12,9.39.55,0,0,2.05,2.96,1.08,2.66s-5.97-6.11-11.15-1.77Z" style="fill: #e8ba20;"/>
      <path id="Path_104" d="M13.42,57.73c2.54,2.69,5.33,1.92,7.19,1.87s2.15.59,2.15.59c-.83-.12-1.66-.14-2.49-.05-4.85.63-6.84-2.41-6.84-2.41Z" style="fill: #e8ba20;"/>
      <path id="Path_105" d="M13.22,58.57s2.59,1.92,4.16,2.22-.1.25.71.59-1.69,1.28-4.86-2.81Z" style="fill: #e8ba20;"/>
      <path id="Path_106" d="M11.12,53.83c.43-.38.9-.72,1.39-1.01.24-.15.5-.29.75-.42s.52-.25.78-.36c.53-.22,1.08-.4,1.65-.53.28-.07.56-.13.85-.16s.57-.07.86-.09.58-.02.87,0c.29,0,.58.04.87.08l.43.07.42.09c.29.06.56.15.84.23.27.1.55.19.81.31.13.06.27.11.4.17l.39.2c.26.13.5.29.75.44s.48.33.72.49h0c.18.11.35.24.51.38.16.13.32.28.47.43.3.3.58.61.84.95.52.67.94,1.41,1.26,2.19.08.19.15.39.22.59s.13.4.18.61c.11.41.2.82.25,1.24.06.42.09.84.1,1.26,0,.42,0,.84-.04,1.26,0-.21,0-.42,0-.63-.01-.21,0-.42-.03-.63-.03-.42-.08-.83-.15-1.24-.14-.82-.38-1.61-.71-2.38-.16-.38-.36-.75-.57-1.1-.11-.18-.22-.35-.34-.52s-.24-.33-.36-.5c-.25-.32-.53-.63-.83-.91-.15-.14-.3-.28-.46-.41-.16-.13-.32-.25-.49-.36h0c-.24-.16-.47-.33-.71-.48-.25-.14-.48-.3-.74-.42l-.38-.19c-.13-.06-.26-.12-.39-.17-.25-.12-.53-.21-.79-.31-.27-.08-.54-.17-.81-.23l-.41-.1-.42-.07c-.28-.04-.56-.07-.84-.08-.28-.02-.56-.02-.84,0-.29.02-.56.03-.85.07-.28.03-.56.08-.84.13-.56.11-1.1.27-1.63.48-.53.2-1.05.44-1.55.72-.25.14-.5.29-.74.44s-.48.32-.7.5Z" style="fill: #e8ba20;"/>
      <path id="Path_107" d="M24.44,60.52c-.26.43-.76.65-1.25.56,0,0,1,.72,1.25-.56Z" style="fill: #e8ba20;"/>
      <path id="Path_108" d="M45.18,57.33s2.84-2.07,2.05-2.86-2.74,1.43-2.74,1.43c0,0-7.04-2.12-9.39.55,0,0-2.05,2.96-1.07,2.66s5.97-6.11,11.15-1.77Z" style="fill: #e8ba20;"/>
      <path id="Path_109" d="M44.79,57.73c-2.54,2.69-5.33,1.92-7.19,1.87s-2.15.59-2.15.59c.83-.12,1.66-.14,2.49-.05,4.85.63,6.84-2.41,6.84-2.41Z" style="fill: #e8ba20;"/>
      <path id="Path_110" d="M44.99,58.57s-2.59,1.92-4.16,2.22.1.25-.71.59,1.69,1.28,4.86-2.81Z" style="fill: #e8ba20;"/>
      <path id="Path_111" d="M47.09,53.83c-.22-.18-.46-.34-.7-.49-.24-.16-.49-.3-.74-.44-.5-.27-1.02-.51-1.55-.72-.53-.2-1.08-.36-1.63-.48-.28-.06-.56-.1-.84-.13-.28-.04-.56-.05-.84-.07-.29,0-.56-.01-.85,0-.28.01-.56.04-.84.08l-.42.07-.41.1c-.28.06-.54.15-.81.23-.27.1-.53.19-.79.31-.13.06-.26.11-.39.17l-.38.19c-.26.12-.49.28-.74.42-.24.15-.48.31-.71.47h0c-.17.12-.33.24-.49.37-.16.13-.31.27-.46.41-.29.29-.57.59-.83.91-.13.17-.25.33-.36.5s-.23.34-.34.52c-.22.35-.41.72-.57,1.1-.33.76-.57,1.56-.72,2.38-.07.41-.13.82-.15,1.24-.02.21-.02.42-.03.63,0,.21,0,.42,0,.63-.03-.42-.05-.84-.04-1.26,0-.42.04-.84.1-1.26.05-.42.14-.83.25-1.24.05-.2.12-.4.18-.61s.14-.4.22-.59c.48-1.18,1.19-2.25,2.1-3.14.15-.15.31-.29.47-.43.16-.14.34-.27.51-.39h0c.24-.16.48-.33.72-.48s.49-.31.75-.44l.39-.2c.13-.06.27-.11.4-.17.27-.12.54-.21.81-.31.28-.08.55-.17.84-.23l.42-.09.43-.07c.29-.04.58-.07.87-.08.29-.02.58-.01.87,0s.58.04.86.09.57.1.85.16c.56.13,1.11.31,1.65.53.27.11.53.23.78.36.26.13.51.27.75.42.49.29.96.63,1.39,1.01Z" style="fill: #e8ba20;"/>
      <path id="Path_112" d="M33.77,60.52c.26.43.76.65,1.25.56,0,0-1,.72-1.25-.56Z" style="fill: #e8ba20;"/>
      <path id="Path_113" d="M9.36,46.13s1.62,2.37.88,7.25c-.74,4.88-.2,13.17,2.98,19.68,0,0,1.72,5.03,5.02,7.1s1.48,4.59,4.52,6.81c3.03,2.22,2.97,2.37,6.78,2,0,0-3.45,2.37-9.39-3.18-5.94-5.55-7.92-9.54-9.02-13.02s-2.79-11.92-2.93-17.32.51-8.58,1.17-9.32Z" style="fill: #e8ba20;"/>
      <path id="Path_114" d="M8.16,57.23s-.16-.49-.49-1.34c-.17-.42-.38-.93-.65-1.5-.3-.64-.65-1.24-1.07-1.81-.22-.32-.52-.58-.87-.75-.09-.04-.18-.06-.27-.07h-.13s-.16.04-.16.04c-.18.06-.34.19-.44.35-.21.38-.33.81-.34,1.25-.03.47-.02.94.03,1.41.11.99.29,1.96.55,2.92.26.98.53,1.98.89,2.95.16.49.37.96.56,1.44.1.23.21.46.33.68.12.23.23.44.36.68.25.45.51.88.71,1.34.23.45.41.92.6,1.37.35.88.61,1.78.78,2.71.08.43.14.87.17,1.3,0,.21,0,.42-.01.63s-.03.4-.04.59c-.08.7-.02,1.4.15,2.08.05.14.12.26.23.37.1.09.23.13.36.12.24-.03.47-.13.67-.27.28-.21.54-.43.79-.68.17-.18.25-.27.25-.27,0,0-.09.1-.24.28-.23.26-.49.51-.76.72-.2.16-.44.27-.69.31-.15.01-.31-.03-.42-.13-.12-.11-.21-.24-.27-.39-.21-.69-.28-1.41-.22-2.13,0-.2.03-.4.03-.6s0-.4,0-.61c-.04-.43-.1-.85-.19-1.27-.19-.91-.47-1.8-.81-2.66-.18-.45-.37-.9-.59-1.34-.2-.45-.47-.89-.72-1.33-.12-.21-.25-.45-.37-.68-.13-.23-.25-.46-.35-.7-.2-.48-.42-.96-.58-1.45-.34-.98-.64-1.97-.88-2.98-.26-.97-.44-1.97-.54-2.97-.05-.48-.05-.97-.01-1.45.02-.48.16-.94.4-1.36.14-.2.34-.36.58-.43l.16-.03c.07,0,.12,0,.18,0,.11.01.23.04.33.09.37.19.69.48.93.82.41.58.76,1.2,1.04,1.86.26.58.45,1.1.6,1.52.31.86.44,1.36.44,1.36Z" style="fill: #e8ba20;"/>
      <path id="Path_115" d="M8.16,61.72s-2.21-7.66-3.35-8.19-.88,3.18-.88,3.18c0,0,.76-4.42,4.23,5Z" style="fill: #e8ba20;"/>
      <path id="Path_116" d="M6.04,58.57s.05.23.14.63c.05.2.1.44.18.72s.16.59.25.93c.1.34.2.7.34,1.08.07.19.14.38.21.58l.25.59c.17.41.38.81.55,1.25.18.43.35.87.51,1.32.14.45.29.9.41,1.35.06.23.12.45.17.67s.1.44.14.67.07.44.11.65.04.42.06.63c.04.41.04.79.07,1.14s.05.68.09.96c.02.24.08.48.18.7.04.07.13.11.2.07,0,0,0,0,0,0,.06-.03.11-.07.15-.12.07-.08.11-.13.11-.13-.03.05-.06.1-.1.14-.04.06-.09.1-.15.14-.04.03-.09.04-.14.03-.05-.02-.1-.05-.13-.09-.13-.22-.21-.46-.25-.71-.06-.29-.1-.61-.14-.96s-.06-.74-.12-1.13c-.03-.2-.04-.4-.09-.61s-.08-.42-.12-.63-.1-.43-.15-.65-.11-.44-.18-.67c-.12-.44-.27-.89-.42-1.33-.16-.44-.31-.88-.48-1.31-.16-.43-.36-.84-.53-1.25-.08-.21-.17-.41-.25-.61-.07-.2-.13-.4-.19-.6-.13-.39-.21-.76-.3-1.11-.16-.69-.26-1.27-.32-1.68s-.09-.65-.09-.65Z" style="fill: #e8ba20;"/>
      <path id="Path_117" d="M52.03,57.23s.13-.5.44-1.36c.15-.43.35-.94.6-1.52.28-.66.63-1.28,1.04-1.86.24-.35.55-.63.93-.82.11-.05.22-.07.33-.09.06,0,.11,0,.18,0l.16.03c.24.07.44.22.58.43.24.41.38.88.4,1.36.04.48.03.97-.01,1.45-.1,1-.28,2-.54,2.97-.25.99-.52,2-.88,2.98-.16.5-.38.97-.58,1.45-.1.24-.22.47-.35.7-.12.23-.25.46-.37.68-.25.44-.52.88-.72,1.33-.23.44-.41.89-.6,1.34-.34.86-.61,1.75-.81,2.66-.09.42-.15.84-.19,1.27v.61c0,.2.02.4.03.6.07.72,0,1.44-.22,2.13-.06.15-.15.29-.27.39-.12.1-.27.15-.42.13-.25-.04-.49-.15-.69-.31-.28-.22-.53-.46-.76-.72-.16-.18-.24-.28-.24-.28l.25.27c.24.25.5.48.79.68.19.15.42.24.67.27.13,0,.26-.03.36-.12.11-.1.18-.23.23-.37.18-.68.23-1.38.15-2.08,0-.19-.03-.39-.04-.59s0-.42,0-.63c.03-.44.08-.87.17-1.3.18-.93.44-1.83.78-2.71.18-.45.37-.92.6-1.37.21-.46.46-.89.71-1.34.13-.23.24-.45.36-.68.13-.22.24-.45.34-.68.2-.48.41-.94.56-1.44.36-.96.63-1.96.89-2.95.26-.96.44-1.93.55-2.92.05-.47.06-.94.03-1.41,0-.44-.13-.87-.34-1.25-.1-.16-.26-.29-.44-.35l-.16-.04h-.13c-.09,0-.19.02-.27.06-.35.17-.65.43-.87.75-.42.56-.77,1.17-1.07,1.81-.27.57-.48,1.08-.65,1.5-.33.84-.49,1.34-.49,1.34Z" style="fill: #e8ba20;"/>
      <path id="Path_118" d="M52.03,61.72s2.21-7.66,3.35-8.19.88,3.18.88,3.18c0,0-.76-4.42-4.23,5Z" style="fill: #e8ba20;"/>
      <path id="Path_119" d="M54.16,58.57s-.02.24-.09.64-.16.99-.32,1.68c-.09.34-.18.72-.3,1.11-.06.2-.13.4-.19.6-.08.2-.16.4-.25.61-.17.41-.37.82-.53,1.25-.18.42-.33.87-.49,1.31-.15.44-.3.89-.42,1.33-.07.22-.13.44-.18.67s-.11.44-.15.65-.08.43-.12.63-.06.41-.09.61c-.06.4-.08.78-.12,1.13s-.09.68-.14.96c-.04.25-.12.49-.24.71-.03.04-.08.07-.13.09-.05,0-.1,0-.14-.03-.06-.04-.11-.09-.15-.14-.03-.05-.07-.09-.1-.14,0,0,.03.05.11.13.04.05.1.09.15.12.07.04.16.01.2-.06,0,0,0,0,0,0,.1-.22.17-.46.18-.7.03-.29.06-.61.08-.96s.03-.73.07-1.14c.02-.2.03-.42.06-.63s.07-.43.11-.65.1-.44.14-.67.1-.45.17-.67c.11-.45.26-.9.41-1.35.17-.45.32-.89.51-1.32.17-.44.38-.84.55-1.25.09-.2.17-.4.25-.59.07-.2.14-.39.21-.58.14-.38.24-.74.34-1.08.09-.34.18-.65.25-.93s.13-.52.18-.72l.14-.63Z" style="fill: #e8ba20;"/>
      <path id="Path_120" d="M28.94,51.83c-.6,0-1.09.48-1.1,1.08,0,.6.48,1.09,1.08,1.1s1.09-.48,1.1-1.08c0,0,0,0,0-.01,0-.6-.48-1.08-1.08-1.09ZM28.94,54.3c-.77,0-1.39-.61-1.4-1.37,0-.77.61-1.39,1.37-1.4.77,0,1.39.61,1.4,1.37,0,0,0,0,0,.01,0,.76-.61,1.38-1.37,1.39Z" style="fill: #e8ba20;"/>
      <path id="Path_121" d="M22.93,78.58s.21-.07.58-.15c.19-.04.41-.08.67-.11.13-.02.27-.03.42-.04.08,0,.15,0,.23,0h.11s.08,0,.12,0c.32-.1.64-.23.93-.4.18-.08.37-.15.56-.19.21-.04.43-.03.64,0,.21.05.42.13.6.25.1.06.19.11.27.17.08.06.17.11.26.17.16.1.35.17.54.19.08,0,.16-.02.23-.06.08-.05.15-.12.2-.19.07-.09.15-.18.24-.25.05-.04.11-.08.17-.11.05-.03.1-.04.15-.07.2-.09.4-.17.61-.24.41-.14.86-.18,1.29-.12.41.07.79.24,1.1.5.24.24.51.45.81.63.25.13.54.16.81.09.22-.07.44-.12.67-.15.15-.01.3,0,.44.05.1.04.14.06.14.06,0,0-.05-.01-.15-.05-.14-.03-.29-.04-.43-.02-.22.05-.43.12-.64.2-.3.1-.62.09-.91-.04-.31-.16-.61-.37-.87-.61-.3-.22-.64-.36-1.01-.42-.39-.05-.79,0-1.17.13-.2.07-.39.15-.58.24-.05.02-.1.05-.14.07-.04.02-.07.04-.1.07-.07.07-.14.14-.2.22-.08.1-.17.18-.27.25-.12.07-.25.1-.39.09-.24-.03-.46-.11-.66-.24-.32-.25-.67-.44-1.06-.57-.36-.07-.73-.03-1.07.13-.32.17-.66.29-1.01.36-.04,0-.08,0-.12,0h-.12c-.07,0-.15-.01-.22-.02-.15,0-.29,0-.42,0-.26.02-.49.04-.67.06-.37.05-.59.09-.59.09Z" style="fill: #e8ba20;"/>
      <path id="Path_122" d="M22.05,79.43s.23-.04.62-.1.96-.16,1.65-.24c.38-.05.75-.06,1.13-.02.42.04.84.16,1.22.35.1.05.2.1.3.15.1.04.2.09.29.13.1.05.2.08.31.1.1.02.2.06.31.08.44.08.88.09,1.32.04.44-.04.87-.16,1.27-.34.76-.48,1.69-.61,2.55-.34.18.03.38.06.56.08.18,0,.36.01.52.02.34,0,.65-.02.93-.04s.52-.05.72-.07c.4-.05.63-.08.63-.08,0,0-.22.06-.62.13-.2.04-.44.08-.72.12-.14.02-.29.04-.44.06-.16,0-.32.02-.5.04-.18,0-.36,0-.55,0-.19-.02-.37-.03-.58-.06-.39-.08-.8-.11-1.2-.07-.42.08-.82.23-1.19.45-.43.2-.89.34-1.36.39-.47.04-.94.02-1.41-.07-.11-.02-.23-.06-.34-.09-.11-.03-.22-.07-.32-.11-.1-.05-.21-.1-.31-.14s-.19-.1-.29-.14c-.36-.18-.74-.31-1.14-.37-.36-.05-.73-.06-1.09-.02-.68.05-1.26.1-1.66.13s-.63.04-.63.04Z" style="fill: #e8ba20;"/>
      <path id="Path_123" d="M24.5,81.47s1.87,1.74,3.08,1.33,1.5-.52,2.57-.44,2.53.89,4.29-1.37c0,0-1.03,2.4-2.82,2.48s-.7-.41-3.08,0-4.03-2-4.03-2Z" style="fill: #e8ba20;"/>
      <path id="Path_124" d="M28.91,76.89c-.15,0-.29,0-.41,0-1.94-.08-3.41-1.93-4.11-3.03-.84-1.3-.82-3.16.03-3.9s2.22.25,2.28.29l-.17.24s-1.24-.89-1.91-.3c-.73.64-.72,2.34.03,3.51.54.84,2,2.81,3.88,2.89,1.36.06,3.84-.13,5.12-2.04,1.17-1.75,1.35-3.52.44-4.2-.88-.66-1.97.28-1.98.29l-.19-.22s1.27-1.11,2.35-.3c1.05.78.89,2.71-.37,4.6-1.23,1.85-3.49,2.19-4.96,2.19Z" style="fill: #e8ba20;"/>
      <path id="Path_125" d="M27.55,74.62c-.88-.51-1.9-.75-2.92-.67.82,1.23,2.2,2.71,3.88,2.78,1.76.07,4.03-.29,5.25-2.11.35-.52.63-1.08.83-1.67-1.1.11-2.01.88-2.84,1.32-1.03.54-1.54,1.72-4.18.35Z" style="fill: #e8ba20;"/>
      <path id="Path_126" d="M50.33,60.06c-.06.1-.19.31-.25.41.02-.3.06-.59.13-.89,0-.25-.24-.03-.27.15-.2.69-.3,1.41-.3,2.13-.03.18.25-.41.42-.97l.08-.53" style="fill: #e8ba20;"/>
      <path id="Path_127" d="M46.82,73.47c-.02.11-.03.21-.06.3.11-.25.23-.5.35-.78.06-.14.12-.28.19-.43.06-.16.11-.32.18-.5.08-.28-.08-.15-.2.05.08-.52.11-1.06.09-1.59-.05.45-.08.92-.16,1.38-.03.23-.06.46-.11.69-.05.23-.1.45-.15.67l-.13.19Z" style="fill: #e8ba20;"/>
      <path id="Path_128" d="M34.68,87.94c.06,0,.14,0,.22-.01s.13-.02.13-.02c.74-.39,1.44-.85,2.09-1.37.7-.58,1.27-1.3,1.68-2.11.06-.09.13-.18.2-.26.1-.1.19-.22.26-.34.03-.11.06-.22.08-.31l.02-.13.03.13c.03.11.11.2.22.23.23.03.45-.02.65-.13.2-.11.4-.23.58-.36.18-.15.36-.29.54-.43l.5-.46c.65-.63,1.26-1.31,1.81-2.03,1.12-1.44,2.07-3,2.83-4.67.05-.14.12-.31.09-.19,0,0,.02-.06.06-.15s.1-.22.14-.35c.08-.25.2-.5.34-.73-.12.27-.22.51-.31.76-.1.25-.21.51-.34.81v-.02c-.57,1.49-1.35,2.88-2.32,4.14-.26.32-.51.66-.78.98-.28.31-.55.64-.85.93l-.45.45c-.15.15-.31.29-.47.43-.15.14-.32.28-.49.4l-.25.19-.27.18c.28-.17.54-.36.8-.56.25-.21.5-.41.74-.64s.48-.45.71-.69.46-.48.68-.73c.91-1.04,1.71-2.18,2.38-3.39.18-.38.4-.77.58-1.17.18-.4.36-.79.52-1.14.49-1.09.69-1.96,1.06-3.03.2-.53.37-.92.55-1.38.1-.25.18-.5.24-.76.09-.33.14-.67.17-1.01.01-.18,0-.37-.02-.55-.02-.17-.03-.34-.01-.51.03-.23.08-.45.15-.67.07-.15.12-.31.15-.47.07-.45.1-.87.14-1.28s.05-.83.1-1.28c.06-.29.09-.59.1-.88-.08-.15-.2.05-.08-.58-.13.2-.28.77-.32.69,0-.31.09-.76.1-1.02-.1.3-.2.61-.29.9-.03.11-.06.22-.1.32-.06.18-.12.36-.18.53,0,.06,0,.1,0,.1-.11.25-.19.46-.27.68-.09.33-.15.66-.18.99-.02-.03-.04-.04-.07-.02-.02.17-.05.35-.09.56-.05.11-.16.33-.22.44,0,.09-.01.23,0,.35,0,.12,0,.21,0,.21-.03.14-.09.28-.18.39-.02.19-.02.39-.02.58-.09.19-.15.39-.19.59-.02.24-.06.48-.12.71-.03.19-.05.37-.07.55,0,.07-.02.14-.02.21.03.53,0,1.06-.09,1.59.12-.2.29-.33.2-.05-.06.18-.12.34-.18.5-.07.15-.13.29-.19.43-.12.27-.24.52-.35.78-.07.36-.16.71-.27,1.05-.06.07-.12.14-.18.21l-.1.24c-.12.5-.34.97-.64,1.38l-.34.62c-.12.2-.25.4-.38.61-.07.16-.15.31-.22.45-.1.22-.26.41-.46.55l-.25.35c-.22.39-.47.77-.73,1.14-.06.14-.12.27-.17.4,0-.1.02-.2.07-.28-.21.29-.47.54-.77.72-.1.14-.2.29-.2.29-.04.03-.11.06-.18.1-.4.53-.85,1.02-1.35,1.45-.12.13.47-.51.04-.24-.11.07-.22.12-.33.19l-.16.11-.16.09c-.09.04-.18.08-.28.1h-.03s0,.03,0,.05c0,.02,0,.05-.02.07-.03.07-.03.05,0,.03h0s-.02,0-.03,0l-.06.02h-.02s0,0,0,0h0l.28-.05v.02l-.94-.03c-.04.12-.09.24-.15.36-.07.16-.13.33-.21.5-.69,1.51-1.91,2.71-3.43,3.37-1.56.66-3.25.96-4.94.86,1.53.09,3.06-.1,4.52-.57Z" style="fill: #e8ba20;"/>
      <path id="Path_129" d="M32.37,0c.27.12.79.39,1.04.53-.17.06-1.29-.19-2.16-.23-.6.07.04.48.45.51.89.16,1.96.37,2.89.58s1.75.42,2.14.45c.42.15-.89-.76-2.27-1.23-.43-.1-.86-.17-1.3-.23" style="fill: #e8ba20;"/>
      <path id="Path_130" d="M53.92,23.93c.17.19.34.37.49.56-.7-1.32-1.54-2.55-2.51-3.68-.49-.5-.36-.04-.08.43-.54-.48-1.13-.9-1.75-1.26-.49-.27-.91-.48-1.44-.76,1.91,1.12,3.63,2.54,5.09,4.2,0,0,.06.13.11.26s.1.26.1.26Z" style="fill: #e8ba20;"/>
      <path id="Path_131" d="M47.04,34.33c.08.13.18.35.26.52.04.07.07.14.1.22.02.06.04.1.04.1.71.89,1.28,1.9,1.68,2.97.38,1.03.66,2.1.82,3.2.04.27.08.55.11.83.01.14.03.28.04.42.02.13.03.26.05.39.06.54.15,1.07.28,1.59.29,1.14.72,2.25,1.28,3.28.12.25.21.51.26.78.08.34.2.68.35,1l.35.47c.11.14.22.28.32.4.13.15.25.31.36.48.34.45.7.88,1.09,1.29.65-.85,1.22-1.76,1.71-2.71.26-.46.47-.95.69-1.43.21-.48.41-.97.6-1.46.73-1.99,1.22-4.05,1.45-6.15.21-2.1.2-4.22-.04-6.33-.17-1.05-.3-2.1-.56-3.13-.25-1.03-.58-2.05-.97-3.03-.16-.33-.35-.74-.2-.48,0,0-.26-.56-.59-1.2-.15-.33-.35-.66-.49-.98-.14-.26-.26-.53-.36-.81.69,1.22,1.3,2.48,1.83,3.77,0,0-.02-.02-.03-.03.39.85.71,1.73.97,2.63.06.23.12.46.18.7l.09.35.07.36c.09.48.17.96.26,1.45.3,2.01.36,4.04.17,6.06-.19,2.08-.64,4.13-1.31,6.1l-.26.74c-.09.25-.2.49-.29.73s-.2.48-.3.72l-.34.71c-.11.24-.23.47-.35.7s-.24.46-.37.69l-.43.72-.48.73c.25-.36.51-.73.75-1.13.22-.33.41-.68.61-1.03.39-.7.75-1.42,1.07-2.17.08-.19.17-.37.24-.56l.22-.57c.14-.39.3-.77.41-1.16s.24-.79.37-1.19c.1-.41.2-.81.3-1.22.11-.41.17-.82.24-1.24.06-.42.15-.84.19-1.26.1-.85.16-1.71.17-2.57,0-.43.01-.87,0-1.3-.03-.43-.06-.87-.1-1.31l-.05-.66c-.02-.22-.06-.44-.1-.65-.07-.43-.14-.87-.22-1.31-.02-.12-.05-.26-.07-.38s-.06-.26-.1-.39c-.06-.26-.13-.53-.19-.79-.16-.52-.29-1.06-.48-1.58-.16-.53-.37-1.03-.55-1.52-.21-.48-.39-.96-.61-1.39-.55-1.24-1.24-2.41-2.05-3.48-.76-1.03-1.57-1.98-2.5-3.02-.92-1.03-1.61-1.86-2.48-2.71-.47-.46-.98-.89-1.51-1.27-.32-.23-.65-.45-.99-.64-.09-.05-.18-.11-.29-.16l-.07-.04-.04-.02h0v-.04c0-.06-.03-.12-.06-.17-.02-.03-.03-.06-.04-.08v-.02s-.02-.05-.03-.07l-.04-.15c-.05-.19-.1-.38-.15-.6s-.1-.47-.16-.77c-.1-.61-.18-1.3-.25-1.9-.05-.45-.14-.9-.29-1.33-.42-1.11-1-2.15-1.74-3.09-.71-.9-1.52-1.71-2.41-2.42-.72-.6-1.68-1.33-1.89-1.32-.2,0-.2.11-.32.11-.38-.11-.74-.29-1.06-.52.42.4,1.56,1.3,1.35,1.31-.71-.42-1.45-.8-2.21-1.12.63.42,1.24.87,1.82,1.35.22.19.42.37.59.54s.32.33.48.48c.14.17.28.33.41.49.12.09.19.15.19.15.35.54.62,1,.89,1.46.11.13.22.29.34.47.11.18.22.38.33.57.16.33.35.64.56.93-.08-.04-.12-.02-.13.04.15.35.36.73.53,1.18.01.14.04.34.05.55s.02.41.02.55c.04.1.09.21.14.34s.09.26.13.38l.15.44c.04.32,0,.64-.12.94.05.2.07.42.1.64.02.11.04.22.06.33l.03.17.02.08.02.13c-.09.64-.13,1.29-.13,1.93.23.11.48.23.73.35.16.06.3.13.45.2.07.03.15.07.22.1l.16.08c.13.07.26.14.38.21.25.14.47.29.67.43.39.24.76.47,1.11.69.15.08.29.17.44.25.53.29.95.49,1.44.76.63.36,1.21.78,1.75,1.26-.29-.48-.41-.93.08-.43.98,1.13,1.82,2.36,2.51,3.68.59.64,1.1,1.36,1.51,2.13,0,0,.07.36.13.65.09.19.17.38.26.56.64,1.07,1.04,2.26,1.19,3.49.06.28.12.56.18.84l.13.86.13.86.06.43c.02.15.02.29.03.44.07.41.14.83.21,1.21.04.13.07.27.07.41,0,.16,0,.32-.03.47-.04.29-.09.57-.16.85,0,.35,0,.69-.04,1.04,0,.53.02,1.09,0,1.65-.04.55-.08,1.11-.14,1.65,0,.35,0,.7.04,1.05-.1-.21-.13-.44-.11-.67-.08.48-.19.95-.34,1.42-.12.36-.28.7-.49,1.02-.03.22-.08.42-.11.58s-.06.26-.06.26c-.07.1-.16.26-.26.41-.22.8-.47,1.62-.76,2.39-.13.39-.31.76-.46,1.13-.08.19-.17.36-.26.54-.08.14-.13.25-.2.37-.06.15.07-.15.11-.38.05-.16.08-.3.05-.33-.02-.02-.04,0-.1.03-.02.02-.05.05-.09.1s-.08.11-.1.13c-.19.2-.36.41-.53.63-.11-.11-.21-.23-.31-.35-.05-.06-.1-.12-.14-.18-.06-.09-.12-.17-.18-.26-.26-.36-.49-.74-.71-1.12-.12-.19-.24-.39-.36-.59s-.23-.4-.36-.61c-.51-.87-.93-1.78-1.25-2.73-.16-.48-.29-.96-.4-1.45l-.12-.74-.03-.19-.03-.21c-.02-.14-.03-.28-.06-.42-.17-1.14-.44-2.26-.8-3.35-.19-.55-.4-1.09-.65-1.62-.25-.53-.54-1.05-.86-1.55-.66-1.02-1.5-1.92-2.48-2.63-1-.72-2.15-1.21-3.36-1.45-1.18-.22-2.38-.25-3.56-.1-1.14.15-2.27.4-3.37.76.97-.3,1.97-.52,2.97-.66,1.02-.15,2.06-.16,3.09-.04,1.08.12,2.13.45,3.09.96.5.26.97.58,1.41.94.44.37.85.78,1.21,1.23Z" style="fill: #e8ba20;"/>
      <path id="Path_132" d="M31.01,33.56c-.3-.11-.9-.34-1.19-.46.18-.08,1.44.1,2.4.11.66-.08-.06-.48-.53-.5-1-.12-2.21-.26-3.27-.39-.53-.07-1.02-.13-1.43-.18-.32-.05-.64-.08-.96-.1-.24-.05.03.11.56.35.68.29,1.37.53,2.09.7.48.05.96.1,1.45.13" style="fill: #e8ba20;"/>
      <path id="Path_133" d="M6.91,51c-.22-.08-.44-.17-.65-.27.13.11.27.2.4.3.13.07.27.18.39.23.22.13.47.21.73.22.26,0,.52-.1.71-.29.3-.29.55-.63.73-1,.16-.33.12-.44.02-.38-.17.13-.33.28-.46.45.16-.4.27-.81.35-1.23.07-.37.11-.71.15-1.02.07-.63.09-1.18.22-1.92-.27,1.32-.43,2.58-.76,3.67-.12.46-.33.89-.61,1.27-.09.11-.21.19-.34.25-.17.04-.34.05-.51.01,0,0-.1-.07-.18-.13-.05-.03-.09-.07-.13-.1l-.06-.05Z" style="fill: #e8ba20;"/>
      <path id="Path_134" d="M19.48,6.51c-.24.19-.71.59-.71.59-.94,1.48-1.74,3.05-2.38,4.68-.32.8-.6,1.63-.85,2.48-.13.43-.24.86-.34,1.31-.04.18-.12.55-.17.86-.05.32-.09.66-.15.96-.42-.02-.84-.02-1.26,0l-.29.03c-.07.01-.15.01-.22.03-.15.03-.3.05-.45.08-.3.05-.6.15-.9.22-.3.1-.6.21-.91.33-.27.11-.56.19-.86.23-.37.09-.74.2-1.09.35-.36.26-.68.54-.95.74s-.43.39-.52.43c-1.89,1.63-3.39,3.67-4.38,5.95-.27.56-.51,1.13-.72,1.72l-.33.87c-.06.14-.1.29-.14.44l-.13.45c-.16.6-.35,1.19-.49,1.8l-.34,1.83c-.74,4.96-.07,10.03,1.93,14.63.18.36.4.81.23.52,0,0,.08.15.2.39s.3.56.48.91c.2.34.39.74.61,1.04.27.26.5.52.66.7-.15-.13-.3-.26-.43-.39-.07-.06-.14-.13-.21-.19-.07-.06-.14-.13-.18-.21-.19-.32-.37-.64-.54-.96s-.35-.66-.51-1.01c-.18-.35-.35-.73-.52-1.13,0,0,.02.02.03.03-.92-1.9-1.58-3.91-1.95-5.99-.39-2.21-.48-4.46-.27-6.7l.1-.86c.02-.29.06-.57.12-.85.11-.56.22-1.13.34-1.7.06-.28.13-.56.22-.84l.24-.83.24-.83c.09-.28.2-.54.3-.81.76-2.18,1.88-4.22,3.3-6.04-.27.34-.54.69-.82,1.03-.24.37-.48.74-.72,1.11-.12.19-.25.37-.35.57l-.31.59c-.21.4-.41.8-.62,1.19-.17.42-.34.83-.52,1.25l-.26.63-.13.32-.1.33-.41,1.31-.2.66-.15.68c-.1.45-.19.91-.29,1.36-.05.23-.09.46-.11.69l-.09.7C.07,35.13,0,36.08,0,37.03c0,1.95.22,3.88.65,5.78.58,2.27,1.4,4.48,2.44,6.58.17.37.36.72.55,1.06.06.11.13.22.21.31l.26.24c.14.13.27.26.42.38.57.5,1.21.91,1.91,1.21.38.16.79.24,1.21.25.46,0,.9-.14,1.28-.38.36-.24.66-.55.9-.91.23-.34.43-.69.61-1.06.35-.73.6-1.37.86-1.97s.48-1.17.73-1.73c.12-.28.25-.56.39-.8.03-.06.07-.12.1-.17l.05-.09.07-.11c.09-.15.18-.3.28-.45.37-.62.82-1.35,1.32-2.28.23-.45.42-.92.57-1.4.12-.42.27-.81.5-1.46.26-.63.54-1.35.81-1.96.18-.46.32-.94.44-1.43.17-.85.59-1.62,1.2-2.23.7-.74,1.54-1.33,2.47-1.74.41-.18.84-.31,1.28-.41.27-.04.54-.11.8-.2.15-.12.08-.21.18-.29.1-.06.37-.16,1.2-.08-.4-.13-.83-.21-1.25-.23-.44-.03-.8-.02-.72-.09.46-.13.94-.19,1.42-.2.46,0,.92.02,1.37.08-.85-.27-1.74-.38-2.63-.32-.34.02-.66.06-.94.09-.52.08-1.04.18-1.54.33-.16.08-.26.13-.26.13-.68.17-1.34.42-1.96.76-.42.31-.83.65-1.22,1-.36.32-.65.71-.86,1.15,0-.1-.03-.13-.1-.1-.32.51-.55,1.08-.68,1.67l-.13.32c-.04.1-.1.19-.14.3-.1.2-.19.4-.25.54-.02.11-.02.25-.05.4s-.06.3-.09.43c-.06.28-.1.5-.1.5-.13.32-.34.61-.61.83-.04.11-.08.22-.12.33s-.1.22-.14.33c-.09.23-.18.46-.26.7-.38.42-.72.87-1.02,1.34-.18.33-.36.65-.53.95-.18.31-.35.6-.5.87-.13.26-.25.51-.37.77-.12.29-.23.58-.32.89-.06.22-.1.44-.15.65-.12.75-.15,1.29-.21,1.92-.03.31-.07.65-.15,1.02-.08.42-.19.83-.35,1.23.13-.17.28-.32.46-.45.1-.06.13.05-.02.38-.18.38-.42.71-.73,1-.19.18-.44.29-.71.29-.26-.01-.51-.09-.73-.22-.13-.05-.26-.16-.39-.23-.13-.1-.27-.19-.4-.3-.21-.1-.41-.22-.6-.34-.1-.06-.2-.12-.29-.18s-.19-.14-.29-.2c-.04-.03-.11-.08-.13-.09s-.05-.03-.08-.05c-.06-.06-.11-.13-.15-.2-.13-.19-.25-.39-.37-.61l-.17-.7-.31-.62c-.72-1.17-1.21-2.47-1.45-3.83-.34-1.23-.59-2.49-.74-3.76-.05-.23-.1-.45-.14-.67-.02-.11-.05-.22-.07-.33s-.03-.22-.04-.32c-.07-.32-.09-.65-.06-.97.01-.18.03-.35.05-.51s.06-.31.09-.43c.01-.38.03-.76.04-1.15,0-.15-.01-.3-.02-.45,0-.15.01-.3.02-.45.01-.31.02-.61.04-.92l.02-.46c0-.15.02-.31.04-.46.04-.3.09-.6.13-.89.01-.4,0-.79-.03-1.17.09.24.13.49.1.75.04-.28.1-.55.17-.82.08-.26.16-.51.24-.73.13-.4.31-.78.52-1.13.04-.23.11-.46.15-.63s.07-.29.07-.29c.07-.11.18-.28.29-.45.27-.88.58-1.75.93-2.61.08-.21.18-.42.29-.61.1-.2.2-.4.3-.59s.21-.39.31-.58c.11-.18.24-.35.35-.52.12-.2-.12.2-.27.53-.12.35-.16.6.26.06.89-1.03,1.88-2.36,3.07-3.24.38-.28.78-.53,1.2-.74.21-.11.41-.25.63-.36s.44-.21.67-.33c.26-.13.54-.22.81-.33.28-.1.56-.18.84-.26l.43-.09c.07-.02.14-.03.21-.04l.11-.02.2-.02c.14-.01.27-.03.41-.04h.42c.28-.01.56,0,.83,0,.06-.41.09-.86.15-1.28.03-.21.06-.42.1-.63l.07-.39c.09-.48.21-.97.33-1.45.26-.96.58-1.9.96-2.82.74-1.84,1.79-3.54,3.08-5.04.64-.73,1.36-1.4,2.13-2,.77-.58,1.6-1.08,2.47-1.5,1.75-.8,3.63-1.27,5.55-1.38-.98.05-1.96.19-2.92.41-.96.22-1.89.53-2.78.94-.92.42-1.79.95-2.6,1.56-.87.66-1.66,1.4-2.37,2.23Z" style="fill: #e8ba20;"/>
      <path id="Path_135" d="M17.03,16.72c.1.03.3.1.4.13,0,.12-.29.26-.48.44-.09.21.23.42.3.34.48-.21.89-.56,1.17-1.01.1-.08-.39-.17-.79-.06l-.3.26" style="fill: #e8ba20;"/>
      <path id="Path_136" d="M26.62,15.92c.07-.03.14-.07.2-.11-.4-.07-.77-.18-1.31-.24-.2,0-.05.24.12.35-.36.17-.7.39-1,.66.59-.24,1.22-.56,1.82-.78l.17.12Z" style="fill: #e8ba20;"/>
      <path id="Path_137" d="M40.29,16.45c-.06-.08-.18-.25-.18-.25-.6,0-1.19-.1-1.76-.29-.29-.09-.58-.17-.89-.24s-.64-.15-.99-.21c-.15-.04-.24-.32-.46-.49-.16.02-.32,0-.48-.06-2.48-.67-5-.53-7.52-.2-.1.05-.22.06-.14.02,0,0-.68.21-.93.02.39.01.79-.03,1.17-.13,0,0,0,.01,0,.02.51-.18,1.04-.31,1.58-.39.27-.04.55-.07.84-.1s.57-.02.86-.02c.58.01,1.16.04,1.74.11.58.09,1.16.19,1.73.31-.88-.28-1.77-.48-2.68-.61-.47-.06-.94-.1-1.42-.11-.49,0-.98.04-1.46.11-.3.06-.59.11-.89.15-.3.05-.6.08-.86.1-.38,0-.75.03-1.12.1-.36.07-.73.09-1.09.05-.37-.08-.73-.2-1.08-.36-.41-.16-.86-.21-1.29-.13-.33.08-.37.31-.69.41s-.8-.15-.91-.08c-.61.24-1.17.57-1.66.99-.22.16-.53.27-.54.4-.02.24.17.33-.24.52.19.09.6.02.59.14-.15.2-.45.32-.58.49.22-.02.44-.05.65-.07.08-.02.15-.02.23-.02.13-.01.26-.02.39-.01.04-.03.06-.04.06-.04.17.05.35.09.54.11.18-.11.54-.04.64-.21,0,.05,0,.09.03.13.11-.03.23-.07.36-.11.09.05.27.15.36.2l.32-.21c.13.03.24.11.31.22.12-.04.24-.09.35-.16.13.11.29.18.47.2.17-.03.34-.03.5-.02.13-.01.25-.04.37-.07.05-.02.1-.04.14-.06.3-.27.64-.49,1-.66-.17-.12-.32-.35-.12-.35.54.07.9.17,1.31.24.22-.15.46-.26.72-.32,0,0,.11.08.19.15l.18-.04c.16-.1.33-.17.51-.21.18-.03.36-.01.54.05.32-.03.65-.06.98-.07.12-.05.24-.1.34-.15.13-.13.37.02.49.12h.29c.31-.08.62-.15.93-.2.11-.07.21-.15.3-.25-.03.1-.1.18-.19.24.27-.04.54.05.72.25.12-.04.25-.07.25-.07.03.03.08.08.13.13.46-.1.93-.16,1.4-.18.12-.03-.5.14-.16.33.38.13.77.22,1.17.25.13.04.25.08.37.14.13.03.26.06.4.07,2.39.14,4.74.7,6.94,1.66-.49-.23-.96-.44-1.45-.64-.25-.1-.5-.21-.75-.31s-.52-.22-.81-.3Z" style="fill: #e8ba20;"/>
    </g>
  </g>
</svg>